<svg height="512" viewBox="0 0 64 64" width="512" xmlns="http://www.w3.org/2000/svg"><path d="m26 3h12v6h-12z" fill="#32b1cc"/><path d="m43 31-2 5 2 5v16a3.657 3.657 0 0 1 -.13 1 3.992 3.992 0 0 1 -3.87 3h-14a4 4 0 0 1 -4-4v-16l2-5-2-5v-12l7-10h8l7 10z" fill="#cdeef6"/><path d="m29 3h2v3h-2z" fill="#2d9ead"/><path d="m33 3h2v3h-2z" fill="#2d9ead"/><path d="m43 56v1a3.657 3.657 0 0 1 -.13 1 7.72 7.72 0 0 1 -4.02-1.12 6.2 6.2 0 0 0 -6.37 0 7.7 7.7 0 0 1 -4.15 1.12 7.636 7.636 0 0 1 -4.14-1.12 5.719 5.719 0 0 0 -3.19-.88v-2a7.636 7.636 0 0 1 4.14 1.12 6.222 6.222 0 0 0 6.38 0 8.23 8.23 0 0 1 8.29 0 5.694 5.694 0 0 0 3.19.88z" fill="#32b1cc"/><path d="m43 52a7.617 7.617 0 0 1 -4.146-1.122 6.23 6.23 0 0 0 -6.378 0 7.622 7.622 0 0 1 -4.146 1.122 7.614 7.614 0 0 1 -4.144-1.122 5.687 5.687 0 0 0 -3.186-.878v-2a7.621 7.621 0 0 1 4.145 1.122 5.681 5.681 0 0 0 3.185.878 5.7 5.7 0 0 0 3.189-.878 8.221 8.221 0 0 1 8.292 0 5.7 5.7 0 0 0 3.189.878z" fill="#32b1cc"/><path d="m43 46a7.617 7.617 0 0 1 -4.146-1.122 6.23 6.23 0 0 0 -6.378 0 7.622 7.622 0 0 1 -4.146 1.122 7.614 7.614 0 0 1 -4.144-1.122 5.687 5.687 0 0 0 -3.186-.878v-2a7.621 7.621 0 0 1 4.145 1.122 5.681 5.681 0 0 0 3.185.878 5.7 5.7 0 0 0 3.189-.878 8.221 8.221 0 0 1 8.292 0 5.7 5.7 0 0 0 3.189.878z" fill="#32b1cc"/><g fill="#f4f4e6"><path d="m26.9 40.447-1.79-.894 1.8-3.6-2.2-5.51 2.228.183 2 5a1.008 1.008 0 0 1 -.034.819z"/><path d="m27.8 19.6-2.396-.139 3.796-5.061 1.6 1.2z"/><path d="m36 34h2v2h-2z"/><path d="m32 38h2v2h-2z"/></g><path d="m21 19h22v12h-22z" fill="#32b1cc"/><path d="m35 26a3 3 0 0 1 -6 0c0-1.657 3-5 3-5s3 3.343 3 5z" fill="#f4f4e6"/></svg>