<svg height="512" viewBox="0 0 64 64" width="512" xmlns="http://www.w3.org/2000/svg"><path d="m30 3a29.835 29.835 0 0 0 -14 4 35.5 35.5 0 0 1 6-1c12.7 0 22 10.3 22 23a23 23 0 0 1 -23 23 22.166 22.166 0 0 1 -17-7.932 28.467 28.467 0 0 0 26 16.932 29 29 0 0 0 0-58z" fill="#f9bb4b"/><g fill="#eaa434"><path d="m50 45a3 3 0 0 1 -3-3h2a1 1 0 0 0 2 0h2a3 3 0 0 1 -3 3z"/><path d="m34 57a3 3 0 0 1 -3-3h2a1 1 0 0 0 2 0h2a3 3 0 0 1 -3 3z"/><path d="m46 49h-2a1 1 0 0 0 -2 0h-2a3 3 0 0 1 6 0z"/><path d="m53 34h-2a1 1 0 0 0 -2 0h-2a3 3 0 0 1 6 0z"/></g><path d="m53 27h2v2h-2z" fill="#ffd782"/><path d="m45 38h2v2h-2z" fill="#ffd782"/><path d="m48 23h2v2h-2z" fill="#ffd782"/><path d="m42 52h2v2h-2z" fill="#ffd782"/><path d="m26 39a3 3 0 0 1 -3-3 1 1 0 0 0 -2 0 3 3 0 0 1 -3 3 1 1 0 0 0 0 2 3 3 0 0 1 3 3 1 1 0 0 0 2 0 3 3 0 0 1 3-3 1 1 0 0 0 0-2zm-4 2.031a4.988 4.988 0 0 0 -1.031-1.031 4.988 4.988 0 0 0 1.031-1.031 4.988 4.988 0 0 0 1.031 1.031 4.988 4.988 0 0 0 -1.031 1.031z" fill="#87cee9"/><path d="m36 31a3 3 0 0 1 -3-3 1 1 0 0 0 -2 0 3 3 0 0 1 -3 3 1 1 0 0 0 0 2 3 3 0 0 1 3 3 1 1 0 0 0 2 0 3 3 0 0 1 3-3 1 1 0 0 0 0-2zm-4 2.031a4.988 4.988 0 0 0 -1.031-1.031 4.988 4.988 0 0 0 1.031-1.031 4.988 4.988 0 0 0 1.031 1.031 4.988 4.988 0 0 0 -1.031 1.031z" fill="#87cee9"/><path d="m20 22a1 1 0 0 0 0-2 3 3 0 0 1 -3-3 1 1 0 0 0 -2 0 3 3 0 0 1 -3 3 1 1 0 0 0 0 2 3 3 0 0 1 3 3 1 1 0 0 0 2 0 3 3 0 0 1 3-3zm-5.031-1a4.988 4.988 0 0 0 1.031-1.031 4.988 4.988 0 0 0 1.031 1.031 4.988 4.988 0 0 0 -1.031 1.031 4.988 4.988 0 0 0 -1.031-1.031z" fill="#87cee9"/></svg>